<svg width="25" height="26" viewBox="0 0 25 26" fill="none" xmlns="http://www.w3.org/2000/svg">
<path d="M22.4882 9.91558H17.5956L13.1219 3.06369C12.9278 2.77123 12.6009 2.625 12.2741 2.625C11.9472 2.625 11.6204 2.77123 11.4263 3.07413L6.95254 9.91558H2.05999C1.49821 9.91558 1.03857 10.3856 1.03857 10.9601C1.03857 11.0541 1.04879 11.1481 1.07943 11.2421L3.67381 20.9246C3.90874 21.8019 4.69523 22.4495 5.63492 22.4495H18.9133C19.853 22.4495 20.6394 21.8019 20.8846 20.9246L23.479 11.2421L23.5096 10.9601C23.5096 10.3856 23.05 9.91558 22.4882 9.91558ZM12.2741 5.5287L15.134 9.91558H9.41414L12.2741 5.5287ZM18.9133 20.3605L5.64514 20.371L3.39803 12.0046H21.1604L18.9133 20.3605ZM12.2741 14.0936C11.1505 14.0936 10.2313 15.0336 10.2313 16.1825C10.2313 17.3315 11.1505 18.2715 12.2741 18.2715C13.3976 18.2715 14.3169 17.3315 14.3169 16.1825C14.3169 15.0336 13.3976 14.0936 12.2741 14.0936Z" fill="#8B96A5"/>
</svg>
