<svg width="99" height="20" viewBox="0 0 99 20" fill="none" xmlns="http://www.w3.org/2000/svg">
<path fill-rule="evenodd" clip-rule="evenodd" d="M88.4755 15.3522L94.5353 19.0431L92.9272 12.0868L98.281 7.40632L91.2308 6.80272L88.4755 0.242188L85.7201 6.80272L78.6699 7.40632L84.0237 12.0868L82.4156 19.0431L88.4755 15.3522Z" fill="#D5CDC5"/>
<path fill-rule="evenodd" clip-rule="evenodd" d="M68.8644 15.3522L74.9242 19.0431L73.3161 12.0868L78.6699 7.40632L71.6197 6.80272L68.8644 0.242188L66.109 6.80272L59.0588 7.40632L64.4127 12.0868L62.8046 19.0431L68.8644 15.3522Z" fill="#FF9017"/>
<path fill-rule="evenodd" clip-rule="evenodd" d="M49.2533 15.3522L55.3131 19.0431L53.705 12.0868L59.0588 7.40632L52.0087 6.80272L49.2533 0.242188L46.4979 6.80272L39.4478 7.40632L44.8016 12.0868L43.1935 19.0431L49.2533 15.3522Z" fill="#FF9017"/>
<path fill-rule="evenodd" clip-rule="evenodd" d="M29.6422 15.3522L35.702 19.0431L34.0939 12.0868L39.4478 7.40632L32.3976 6.80272L29.6422 0.242188L26.8869 6.80272L19.8367 7.40632L25.1905 12.0868L23.5824 19.0431L29.6422 15.3522Z" fill="#FF9017"/>
<path fill-rule="evenodd" clip-rule="evenodd" d="M10.0311 15.3522L16.091 19.0431L14.4828 12.0868L19.8367 7.40632L12.7865 6.80272L10.0311 0.242188L7.27577 6.80272L0.225586 7.40632L5.57941 12.0868L3.9713 19.0431L10.0311 15.3522Z" fill="#FF9017"/>
</svg>
