<svg width="15" height="15" viewBox="0 0 15 15" fill="none" xmlns="http://www.w3.org/2000/svg">
<g clip-path="url(#clip0_102_5992)">
<path d="M7.49718 0C7.73677 0 7.95552 0.152344 8.05968 0.395508L9.84614 4.53516L13.8357 5.19727C14.0701 5.23535 14.2654 5.41992 14.3383 5.6748C14.4112 5.92969 14.3514 6.20508 14.1847 6.39258L11.2915 9.62109L11.9737 14.1797C12.0128 14.4434 11.9165 14.71 11.7211 14.8682C11.5258 15.0264 11.2706 15.0439 11.0623 14.918L7.49458 12.7734L3.93208 14.915C3.72114 15.041 3.46593 15.0234 3.27323 14.8652C3.08052 14.707 2.98156 14.4404 3.02062 14.1768L3.70291 9.61816L0.809683 6.39258C0.640412 6.20508 0.583121 5.92676 0.656037 5.6748C0.728954 5.42285 0.924267 5.23828 1.15864 5.19727L5.14822 4.53516L6.93468 0.395508C7.04145 0.152344 7.2576 0 7.49718 0ZM7.49718 2.31445L6.13 5.48438C6.03885 5.69238 5.86437 5.83887 5.65864 5.87402L2.57791 6.38379L4.81489 8.87695C4.95812 9.03809 5.02583 9.2666 4.99197 9.49219L4.46333 12.999L7.20291 11.3525C7.38781 11.2412 7.60916 11.2412 7.79145 11.3525L10.531 12.999L10.005 9.49512C9.97114 9.26953 10.0362 9.04102 10.1821 8.87988L12.4191 6.38672L9.33833 5.87402C9.1352 5.83887 8.95812 5.69531 8.86697 5.48438L7.49718 2.31445Z" fill="black"/>
</g>
<defs>
<clipPath id="clip0_102_5992">
<rect width="15" height="15" fill="white"/>
</clipPath>
</defs>
</svg>
