<svg width="21" height="23" viewBox="0 0 21 23" fill="none" xmlns="http://www.w3.org/2000/svg">
<path fill-rule="evenodd" clip-rule="evenodd" d="M6.29989 17.9057C5.14491 17.9057 4.21043 18.8686 4.21043 20.0453C4.21043 21.2221 5.14491 22.1849 6.29989 22.1849C7.45487 22.1849 8.39985 21.2221 8.39985 20.0453C8.39985 18.8686 7.45487 17.9057 6.29989 17.9057ZM0 1.85885C0 2.44724 0.472492 2.92865 1.04998 2.92865H2.09996L5.8799 11.0484L4.46242 13.6587C3.69593 15.0922 4.70392 16.8359 6.29989 16.8359H17.8497C18.4272 16.8359 18.8997 16.3545 18.8997 15.7662C18.8997 15.1778 18.4272 14.6964 17.8497 14.6964H6.29989L7.45487 12.5568H15.2772C16.0647 12.5568 16.7577 12.1182 17.1147 11.4549L20.8736 4.51194C21.2621 3.80588 20.7581 2.92865 19.9601 2.92865H4.42042L3.71693 1.39884C3.54894 1.02442 3.17094 0.789062 2.77195 0.789062H1.04998C0.472492 0.789062 0 1.27047 0 1.85885ZM16.7997 17.9057C15.6447 17.9057 14.7102 18.8686 14.7102 20.0453C14.7102 21.2221 15.6447 22.1849 16.7997 22.1849C17.9547 22.1849 18.8997 21.2221 18.8997 20.0453C18.8997 18.8686 17.9547 17.9057 16.7997 17.9057Z" fill="#8B96A5"/>
</svg>
