<svg width="24" height="24" viewBox="0 0 24 24" fill="none" xmlns="http://www.w3.org/2000/svg">
<path d="M15.7549 14.2578H14.9649L14.6849 13.9878C15.6649 12.8478 16.2549 11.3678 16.2549 9.75781C16.2549 6.16781 13.3449 3.25781 9.75488 3.25781C6.16488 3.25781 3.25488 6.16781 3.25488 9.75781C3.25488 13.3478 6.16488 16.2578 9.75488 16.2578C11.3649 16.2578 12.8449 15.6678 13.9849 14.6878L14.2549 14.9678V15.7578L19.2549 20.7478L20.7449 19.2578L15.7549 14.2578ZM9.75488 14.2578C7.26488 14.2578 5.25488 12.2478 5.25488 9.75781C5.25488 7.26781 7.26488 5.25781 9.75488 5.25781C12.2449 5.25781 14.2549 7.26781 14.2549 9.75781C14.2549 12.2478 12.2449 14.2578 9.75488 14.2578Z" fill="#1C1C1C"/>
</svg>
