<svg width="80" height="60" viewBox="0 0 80 60" fill="none" xmlns="http://www.w3.org/2000/svg">
<path fill-rule="evenodd" clip-rule="evenodd" d="M23.9912 48C19.5929 48 16.0342 50.7 16.0342 54C16.0342 57.3 19.5929 59.9999 23.9912 59.9999C28.3896 59.9999 31.9883 57.3 31.9883 54C31.9883 50.7 28.3896 48 23.9912 48ZM0 2.99999C0 4.64998 1.79933 5.99997 3.99852 5.99997H7.99703L22.3917 28.7699L16.9937 36.0898C14.0748 40.1098 17.9133 44.9998 23.9911 44.9998H67.9748C70.1739 44.9998 71.9733 43.6498 71.9733 41.9998C71.9733 40.3498 70.1739 38.9998 67.9748 38.9998H23.9911L28.3895 32.9998H58.1784C61.1773 32.9998 63.8163 31.7698 65.1758 29.9099L79.4905 10.4399C80.9699 8.45996 79.0506 5.99997 76.0118 5.99997H16.8337L14.1547 1.70999C13.515 0.659997 12.0755 0 10.5561 0H3.99852C1.79933 0 0 1.34999 0 2.99999ZM63.9762 48C59.5778 48 56.0191 50.7 56.0191 54C56.0191 57.3 59.5778 59.9999 63.9762 59.9999C68.3745 59.9999 71.9732 57.3 71.9732 54C71.9732 50.7 68.3745 48 63.9762 48Z" fill="white" fill-opacity="0.8"/>
</svg>
